<?xml version="1.0" encoding="UTF-8" standalone="no"?>
<svg xmlns:dc="http://purl.org/dc/elements/1.1/" xmlns:cc="http://creativecommons.org/ns#" xmlns:rdf="http://www.w3.org/1999/02/22-rdf-syntax-ns#" xmlns:svg="http://www.w3.org/2000/svg" xmlns="http://www.w3.org/2000/svg" id="svg187" version="1.1" viewBox="0 0 264.5833272454602 50.54070685466362" height="191.0199890136719" width="1000">
 <defs id="defs181"/>
 <metadata id="metadata184">
  <rdf:RDF>
   <cc:Work rdf:about="">
    <dc:format>image/svg+xml</dc:format>
    <dc:type rdf:resource="http://purl.org/dc/dcmitype/StillImage"/>
    <dc:title/>
   </cc:Work>
  </rdf:RDF>
 </metadata>
 <g transform="translate(64.25595254955123,-85.76535252200773)" id="layer1">
  <g id="g220">
   <g id="g155" transform="matrix(0.2645833340275645,0,0,0.2645833340275645,-64.25595254955125,85.76535252200773)">
    <rect x="523.0360107421875" width="476.9639892578125" height="6.138000011444092" id="rect140" y="0" style="fill:#ed1f24"/>
    <rect x="523.0360107421875" y="184.8829956054688" width="476.9639892578125" height="6.13700008392334" id="rect142" style="fill:#ed1f24"/>
    <path id="path3338" d="M 157.261,190.115 C 124.218,186.184 92.42499999999998,172.782 66.143,151.704 58.082,145.241 45.978,133.052 39.163,124.538 20.926,101.752 8.98,76.182 3.291,47.755 0.8420000000000001,35.518 9.999999999998898e-4,26.507 9.999999999998898e-4,12.487 L 0,0 H 30.658 61.317 L 61.64,11.938 C 62,25.194 62.872,31.949 65.58899999999998,42.541 74.114,75.763 97.143,105.537 125.288,119.725 L 129.541,121.87 V 60.935 0 H 160.005 190.47 V 95.507 191.019 L 177.159,190.958 C 169.474,190.925 161.064,190.567 157.261,190.115 Z M 220.111,95.507 V 0 H 249.476 278.843 V 95.507 191.019 H 249.476 220.111 Z M 302.995,184.568 C 303.006,157.635 309.13,132.678 321.835,107.858 331.946,88.10600000000002 345.468,71.94200000000002 360.591,61.53800000000002 L 364.667,58.73200000000002 H 335.753 306.8370000000001 V 29.367 0 H 396.309 485.781 V 30.383 60.766 L 478.232,61.1 C 458.3250000000001,61.982 437.033,70.32899999999999 418.003,84.706 409.0890000000001,91.44199999999999 398.2550000000001,103.34 392.5500000000001,112.665 388.6480000000001,119.039 383.6850000000001,129.724 383.6850000000001,131.75 383.6850000000001,132.094 401.8610000000001,132.286 434.7330000000001,132.286 H 485.7810000000001 V 161.65 191.019 H 394.388 302.994 Z" style="fill:#ed1f24"/>
    <polygon points="561.298,76.664 561.298,144.677 544.702,144.677 544.702,49.458 562.521,49.458 591.495,94.483 620.4690000000001,49.458 638.288,49.458 638.288,144.677 621.694,144.677 621.694,76.392 591.6319999999999,121.28 591.088,121.28 " id="polygon145" style="fill:#ed1f24"/>
    <polygon points="732.537,144.677 661.396,144.677 661.396,49.458 731.857,49.458 731.857,64.557 677.991,64.557 677.991,89.042 725.735,89.042 725.735,104.142 677.991,104.142 677.991,129.578 732.537,129.578 " id="polygon147" style="fill:#ed1f24"/>
    <path d="M 750.6549999999997,49.458 H 785.3769999999999 C 792.6469999999999,49.458 799.3229999999997,50.661 805.3979999999999,53.063 811.4719999999997,55.467 816.7059999999999,58.79899999999999 821.0959999999995,63.06099999999999 825.4859999999996,67.32499999999997 828.8779999999999,72.33399999999997 831.2739999999995,78.09199999999998 833.6669999999999,83.852 834.8659999999996,90.08499999999999 834.8659999999996,96.79599999999999 V 97.06699999999999 C 834.8659999999996,103.779 833.6669999999999,110.037 831.2739999999995,115.838 828.8779999999999,121.643 825.4859999999996,126.676 821.0959999999995,130.937 816.7049999999999,135.201 811.4719999999997,138.554 805.3979999999999,141.003 799.3239999999999,143.451 792.6469999999999,144.676 785.3769999999999,144.676 H 750.6549999999997 Z M 785.244,129.578 C 790.1209999999997,129.578 794.556,128.782 798.547,127.189 802.537,125.594 805.931,123.365 808.725,120.496 811.518,117.627 813.6889999999998,114.211 815.243,110.249 816.7939999999997,106.288 817.572,101.986 817.572,97.34200000000001 V 97.06800000000001 C 817.572,92.424 816.7939999999997,88.099 815.243,84.093 813.6889999999998,80.087 811.518,76.65 808.725,73.78000000000001 805.931,70.91100000000001 802.537,68.65800000000001 798.547,67.01700000000001 794.556,65.37800000000001 790.1209999999997,64.558 785.244,64.558 H 766.8869999999999 V 129.579 H 785.244 Z" id="path149" style="fill:#ed1f24"/>
    <rect x="853.97802734375" y="49.45800018310547" width="16.59499931335449" height="95.21800231933594" id="rect151" style="fill:#ed1f24"/>
    <path d="M 925.2039999999999,48.778 H 940.7109999999994 L 982.6069999999997,144.676 H 964.9249999999998 L 955.2679999999998,121.688 H 910.2429999999998 L 900.4489999999998,144.676 H 883.3089999999998 Z M 949.1459999999998,106.861 932.687,68.774 916.363,106.861 Z" id="path153" style="fill:#ed1f24"/>
   </g>
  </g>
 </g>
</svg>